<svg width="48" height="48" viewBox="0 0 48 48" fill="none" xmlns="http://www.w3.org/2000/svg">
<path d="M34 24C28.48 24 24 28.48 24 34C24 39.52 28.48 44 34 44C39.52 44 44 39.52 44 34C44 28.48 39.52 24 34 24ZM37.3 38.7L33 34.4V28H35V33.58L38.7 37.28L37.3 38.7ZM36 6.00001H29.64C28.8 3.68001 26.6 2.00001 24 2.00001C21.4 2.00001 19.2 3.68001 18.36 6.00001H12C9.8 6.00001 8 7.80001 8 10V40C8 42.2 9.8 44 12 44H24.22C23.04 42.86 22.08 41.5 21.38 40H12V10H16V16H32V10H36V20.16C37.42 20.36 38.76 20.78 40 21.36V10C40 7.80001 38.2 6.00001 36 6.00001ZM24 10C22.9 10 22 9.10001 22 8.00001C22 6.90001 22.9 6.00001 24 6.00001C25.1 6.00001 26 6.90001 26 8.00001C26 9.10001 25.1 10 24 10Z" fill="black"/>
</svg>
