<svg width="49" height="49" viewBox="0 0 49 49" fill="none" xmlns="http://www.w3.org/2000/svg">
<path d="M34.1699 24.8201C28.6499 24.8201 24.1699 29.3001 24.1699 34.8201C24.1699 40.3401 28.6499 44.8201 34.1699 44.8201C39.6899 44.8201 44.1699 40.3401 44.1699 34.8201C44.1699 29.3001 39.6899 24.8201 34.1699 24.8201ZM37.4699 39.5201L33.1699 35.2201V28.8201H35.1699V34.4001L38.8699 38.1001L37.4699 39.5201ZM36.1699 6.82007H29.8099C28.9699 4.50007 26.7699 2.82007 24.1699 2.82007C21.5699 2.82007 19.3699 4.50007 18.5299 6.82007H12.1699C9.96992 6.82007 8.16992 8.62007 8.16992 10.8201V40.8201C8.16992 43.0201 9.96992 44.8201 12.1699 44.8201H24.3899C23.2099 43.6801 22.2499 42.3201 21.5499 40.8201H12.1699V10.8201H16.1699V16.8201H32.1699V10.8201H36.1699V20.9801C37.5899 21.1801 38.9299 21.6001 40.1699 22.1801V10.8201C40.1699 8.62007 38.3699 6.82007 36.1699 6.82007ZM24.1699 10.8201C23.0699 10.8201 22.1699 9.92007 22.1699 8.82007C22.1699 7.72007 23.0699 6.82007 24.1699 6.82007C25.2699 6.82007 26.1699 7.72007 26.1699 8.82007C26.1699 9.92007 25.2699 10.8201 24.1699 10.8201Z" fill="black"/>
</svg>
